<!-- icon666.com - MILLIONS vector ICONS FREE --><svg viewBox="0 0 60 45" xmlns="http://www.w3.org/2000/svg"><g id="Page-1" fill="none" fill-rule="evenodd"><g id="028---Laundry-Delivery" fill="rgb(0,0,0)" fill-rule="nonzero" transform="translate(-1)"><path id="Shape" d="m14.5 34c-1.9329966 0-3.5 1.5670034-3.5 3.5s1.5670034 3.5 3.5 3.5 3.5-1.5670034 3.5-3.5-1.5670034-3.5-3.5-3.5zm0 5c-.8284271 0-1.5-.6715729-1.5-1.5s.6715729-1.5 1.5-1.5 1.5.6715729 1.5 1.5-.6715729 1.5-1.5 1.5z"></path><path id="Shape" d="m47.5 34c-1.9329966 0-3.5 1.5670034-3.5 3.5s1.5670034 3.5 3.5 3.5 3.5-1.5670034 3.5-3.5-1.5670034-3.5-3.5-3.5zm0 5c-.8284271 0-1.5-.6715729-1.5-1.5s.6715729-1.5 1.5-1.5 1.5.6715729 1.5 1.5-.6715729 1.5-1.5 1.5z"></path><path id="Shape" d="m58 34.051v-15.051c.0003889-.1355068-.027186-.2696364-.081-.394l-5.483-12.8c-.4787571-1.09567376-1.5602965-1.80440385-2.756-1.806h-11.68v-1c0-1.65685425-1.3431458-3-3-3h-28c-1.65685425 0-3 1.34314575-3 3v31.05c-1.81890967.2555839-3.12889526 1.8765602-2.99709356 3.7086039.1318017 1.8320436 1.66032995 3.2488102 3.49709356 3.2413961h3.372c1.29567785 2.4602099 3.847458 4.0003415 6.628 4.0003415s5.3323222-1.5401316 6.628-4.0003415h19.744c1.2956778 2.4602099 3.847458 4.0003415 6.628 4.0003415s5.3323222-1.5401316 6.628-4.0003415h3.372c.9282342-.0011655 1.8184575-.3688274 2.477-1.023.9352675-.9355012 1.2616313-2.3191703.8429971-3.5740141-.4186342-1.2548439-1.5103878-2.1654083-2.8199971-2.3519859zm-2-7.051h-4v-2h4zm-.517-9h-12.483v-8h9.055zm-5.8-12c.3981176.00119849.758389.23615809.92.6l.6 1.4h-8.203c-1.1045695 0-2 .8954305-2 2v8c0 1.1045695.8954305 2 2 2h13v3h-4c-1.1045695 0-2 .8954305-2 2v2c0 1.1045695.8954305 2 2 2h4v5h-1.872c-1.2956778-2.4602099-3.847458-4.0003415-6.628-4.0003415s-5.3323222 1.5401316-6.628 4.0003415h-2.872v-28zm-43.683-3c0-.55228475.44771525-1 1-1h28c.5522847 0 1 .44771525 1 1v31h-14.872c-1.2956778-2.4602099-3.847458-4.0003415-6.628-4.0003415s-5.33232215 1.5401316-6.628 4.0003415h-1.872zm-1.5 36c-.82842712 0-1.5-.6715729-1.5-1.5s.67157288-1.5 1.5-1.5h2.651c-.20132872.9898667-.20132872 2.0101333 0 3zm10 4c-3.0375661 0-5.5-2.4624339-5.5-5.5s2.4624339-5.5 5.5-5.5 5.5 2.4624339 5.5 5.5c-.0033068 3.0361953-2.4638047 5.4966932-5.5 5.5zm7.349-4c.2013287-.9898667.2013287-2.0101333 0-3h18.3c-.2013287.9898667-.2013287 2.0101333 0 3zm25.651 4c-3.0375661 0-5.5-2.4624339-5.5-5.5s2.4624339-5.5 5.5-5.5 5.5 2.4624339 5.5 5.5c-.0033068 3.0361953-2.4638047 5.4966932-5.5 5.5zm11.062-4.437c-.2824476.2801252-.6641976.4372107-1.062.437l-2.651.0000002c.2013287-.9898669.2013287-2.0101335 0-3.0000048l2.651.0000046c.6079673-.0014954 1.1567088.3641377 1.3894378.9257993.2327291.5616615.1034115 1.2082539-.3274378 1.6372007z"></path><path id="Shape" d="m42 24h4c.5522847 0 1-.4477153 1-1s-.4477153-1-1-1h-4c-.5522847 0-1 .4477153-1 1s.4477153 1 1 1z"></path><path id="Shape" d="m10.99 24h3.01v1c0 1.6568542 1.3431458 3 3 3h8c1.6568542 0 3-1.3431458 3-3v-1h3.01c.7937306.0024 1.5556441-.3118462 2.1168989-.8731011.5612549-.5612548.8755011-1.3231683.8731011-2.1168989-.0026188-.9563715-.4600193-1.8544656-1.232-2.419l-9.656-7.017c-.3286513-.2385949-.7032001-.4064609-1.1-.493-.008001-.6406547.2725398-1.25094114.764-1.662 1.1398929-.83730609 1.5401336-2.35703609.9605355-3.64719247-.5795981-1.29015639-1.981577-2.00024579-3.3646022-1.70414004-1.3830253.29610576-2.371374 1.51796442-2.3719333 2.93233251 0 .55228475.4477153 1 1 1s1-.44771525 1-1 .4477153-1 1-1 1 .44771525 1 1c.0015108.31938766-.1511585.61988548-.41.807-1.0010135.78878575-1.5830628 1.9945647-1.578 3.269-.4043617.0850427-.785881.2555161-1.119.5l-9.663 7.016c-1.04612887.7625749-1.48292772 2.1116011-1.08230071 3.3426186.400627 1.2310175 1.54773303 2.0645716 2.84230071 2.0653814zm15.01 1c0 .5522847-.4477153 1-1 1h-8c-.5522847 0-1-.4477153-1-1v-3c0-.5522847.4477153-1 1-1h8c.5522847 0 1 .4477153 1 1zm-15.592-4.791 9.665-7.023c.1672933-.1225018.369658-.1877355.577-.186h.7c.2092996-.0013731.4134404.06492.582.189l9.658 7.019c.2555786.1867475.4076502.4834727.41.8.0021532.2632185-.1014585.5162819-.2875883.7024117s-.4391932.2897415-.7024117.2875883h-3.01c0-1.6568542-1.3431458-3-3-3h-8c-1.6568542 0-3 1.3431458-3 3h-3.01c-.4289526.0000838-.8091609-.2760869-.9417287-.6840404-.13256779-.4079536.0126671-.8548713.3597287-1.1069596z"></path></g></g></svg>