<!-- icon666.com - MILLIONS vector ICONS FREE --><svg viewBox="0 0 60 49" xmlns="http://www.w3.org/2000/svg"><g id="Page-1" fill="none" fill-rule="evenodd"><g id="015---Dirty-Clothes" fill="rgb(0,0,0)" fill-rule="nonzero" transform="translate(-1)"><path id="Shape" d="m31.005 49c3.987-.02 17-.439 17-4.99v-17.992c5.534-.706 10.73-2.594 12.317-4.519.8103865-.9787705.9088488-2.3644767.245-3.448l-8.091-13.316c-.3587979-.59777047-.9168296-1.04993194-1.576-1.277l-9.361-3.328c-.5459056-.19818321-1.1499117-.1582789-1.665.11-.4850289.24839059-.8416624.69118321-.981 1.218-.658 2.423-3.977 4.182-7.893 4.182s-7.237-1.759-7.893-4.174c-.1379117-.52956357-.4951279-.97517446-.982-1.225-.5129987-.26862751-1.1150948-.30997628-1.66-.114l-9.358 3.326c-.6610885.2269336-1.22116808.67938725-1.582 1.278l-8.088 13.317c-.66692831 1.0837526-.56961326 2.4718995.242 3.452 1.59 1.924 6.788 3.812 12.321 4.518v17.992c0 4.551 13.008 4.97 17.005 4.99zm-27.786-28.779c-.26453429-.3225529-.29429123-.7777536-.074-1.132l8.092-13.324c.120006-.19938246.3072395-.34938199.528-.423l9.41-3.36c.9 3.331 4.944 5.658 9.823 5.658s8.92-2.327 9.865-5.628l9.382 3.334c.2176358.07508625.4015545.22498527.519.423l8.09 13.322c.2199644.35524.1885706.8112549-.078 1.133-.952 1.155-5.151 3.027-10.776 3.776v-4.99c0-.5522847-.4477153-1-1-1s-1 .4477153-1 1v25c0 .747-3.694 2.933-14.995 2.99-11.311-.057-15-2.243-15-2.99v-25c0-.5522847-.4477153-1-1-1s-1 .4477153-1 1v4.99c-5.63-.749-9.831-2.621-10.786-3.779z"></path><path id="Shape" d="m25.308 23.12c-.835 1.272-1.7 2.587-2.5 3.921-1.678 2.81-.363 4.177.28 4.634.5614087.3565798 1.1997015.5742576 1.862.635.3704423.0194466.7306846.1282055 1.05.317.106.087.109.142.112.174-.031791.2796884-.1622709.5388755-.368.731-.146.157-.333.319-.528.491-.9497366.6364918-1.5759758 1.654313-1.716 2.789.0224889 1.4417342.9950321 2.6951165 2.386 3.075 1.0404404.2000167 2.1180056.0373055 3.053-.461.3332635-.1711096.6570661-.3600501.97-.566.99-.625 1.511-.888 2.011-.621.2668327.1642005.5149658.3570066.74.575.5876889.6317012 1.3719209 1.0458462 2.225 1.175l.09.007h.175c1.1797163-.0816249 2.2481311-.7257997 2.871-1.731.71-.857 1.4-1.75 2.06-2.654l.092-.127c.9-1.239 2.141-2.936 1.762-4.6-.2178059-.8609384-.8106531-1.5785955-1.615-1.955-.154-.083-.315-.159-.476-.234-.2389119-.097893-.4651996-.2241306-.674-.376l-.042-.036c.214821-.3416708.4786331-.649957.783-.915.1-.1.192-.186.274-.27.7114545-.656754 1.0819495-1.6038202 1.005-2.569-.0541724-.9188486-.5507513-1.7543091-1.332-2.241-1.202445-.6145217-2.6155417-.6639691-3.858-.135-.213.081-.426.169-.64.258-.5897403.2947162-1.2294087.4765096-1.886.536-.0788183.0019887-.1575406-.0067582-.234-.026.0409998-.1300577.0887308-.2578967.143-.383.062-.149.121-.3.166-.435.3804613-1.1665213.03151-2.4475813-.888-3.26-.9193752-.8551814-2.2588295-1.0826804-3.409-.579-.9914734.5280856-1.7988719 1.3452497-2.315 2.343-.537.843-1.081 1.678-1.629 2.513zm3.319-1.446c.3179752-.6469864.8105174-1.1921772 1.422-1.574.4295855-.1843073.9276319-.0954687 1.267.226.3318572.2868833.4615377.7435157.33 1.162-.03.093-.071.188-.112.287-.3648225.6587007-.3967118 1.4511136-.086 2.137.4165334.6809601 1.1728916 1.0787201 1.97 1.036.939782-.0395502 1.8611639-.2734709 2.706-.687.2-.081.39-.161.585-.236.6630981-.2992351 1.420594-.3100979 2.092-.03.2486906.1622712.3975743.4400617.395.737.0156777.3783842-.1504427.7414705-.447.977l-.233.229c-.7884556.5843263-1.2961865 1.47213-1.4 2.448.0278209.5767491.3061473 1.1125823.762 1.467.3410749.2703848.7175731.4927846 1.119.661.127.06.255.119.377.184.529.284.59.55.61.637.177.776-.828 2.154-1.428 2.977l-.094.129c-.632.87-1.3 1.729-1.988 2.561-.617.744-.887 1.026-1.392 1l-.109.994.09-1c-.334-.03-.625-.276-1.072-.675-.3413032-.3266673-.7207008-.6110476-1.13-.847-.4097871-.2251564-.8694347-.3441078-1.337-.346-.974554.0878454-1.9046964.4482582-2.684 1.04-.2516419.1670837-.5120113.3206348-.78.46-.5173898.2929463-1.1182127.4035315-1.706.314-.4997278-.1586786-.8430627-.6177985-.854-1.142 0-.346.6-.882 1.047-1.274.249-.22.484-.43.671-.631.5894444-.5884366.9143179-1.3912351.9-2.224-.0420733-.6212289-.3446034-1.195782-.833-1.582-.587142-.4314963-1.2827326-.6911742-2.009-.75-.3552298-.0244987-.7013604-.1232958-1.016-.29-.552-.392-.063-1.408.278-1.979.774-1.3 1.626-2.594 2.449-3.849.548-.848 1.102-1.693 1.64-2.547z"></path><path id="Shape" d="m18.218 18.883c.4874176.9365719 1.4812894 1.4976096 2.535 1.431.6070119-.0052585 1.2068173-.1320881 1.764-.373 1.193336-.5368748 2.2748598-1.2937378 3.188-2.231 1.5421192-1.4779012 1.89637-3.8086498.863-5.678-.630056-1.2324643-1.8842402-2.0211266-3.268-2.055-1.488.109-2.39 1.368-3.03 2.26-.7725032 1.0163103-1.4110757 2.1277626-1.9 3.307-.3715683.8319511-.5021878 1.7514849-.377 2.654.0443856.2372766.1200453.4676183.225.685zm2.018-2.624c.4410999-1.0402769 1.0123219-2.0204265 1.7-2.917.447-.623.954-1.33 1.509-1.371h.037c.5872332.1333443 1.0831278.5241826 1.35 1.064.5807794 1.0801919.3624663 2.4159235-.532 3.255-.7355308.759219-1.6073694 1.3732376-2.57 1.81-.563.241-1.5.344-1.716-.1-.028511-.0585743-.0487058-.1208418-.06-.185-.0427866-.5343584.0544065-1.0706437.282-1.556z"></path></g></g></svg>